<svg xmlns="http://www.w3.org/2000/svg" viewBox="0 0 14 13.91"><path d="M11.969,13.917 L1.937,13.917 C1.937,13.917 -0.000,13.875 -0.000,11.886 L-0.000,1.906 C-0.000,-0.021 1.969,0.000 1.969,0.000 L12.062,0.000 C13.958,0.000 14.000,1.969 14.000,1.969 L14.000,11.948 C14.000,11.948 14.021,13.917 11.969,13.917 ZM13.000,7.000 L7.000,7.000 L7.000,1.000 L2.031,1.000 C2.031,1.000 1.000,1.063 1.000,2.031 L1.000,7.000 L7.000,7.000 L7.000,12.917 L12.000,12.917 C12.000,12.917 13.000,12.948 13.000,11.917 L13.000,7.000 Z" class="cls-1"/> </svg>