<svg xmlns="http://www.w3.org/2000/svg" viewBox="0 0 14.94 15.12"><path d="M12.896,15.120 C11.774,15.120 10.865,14.211 10.865,13.089 C10.865,11.967 11.774,11.058 12.896,11.058 C14.018,11.058 14.927,11.967 14.927,13.089 C14.927,14.211 14.018,15.120 12.896,15.120 ZM5.777,15.082 C5.027,15.082 4.303,14.797 4.303,14.797 C4.303,14.797 3.400,14.337 2.993,13.986 C2.585,13.635 2.303,13.262 2.145,12.867 C1.988,12.471 1.909,11.898 1.909,11.148 L1.909,6.929 L0.010,6.929 L0.010,4.313 C0.655,4.103 1.292,3.719 1.752,3.328 C2.212,2.936 2.581,2.215 2.859,1.666 C3.138,1.117 3.163,0.838 3.268,-0.009 L4.921,-0.009 L4.921,4.059 L8.860,4.059 L8.860,6.929 L4.921,6.929 L4.921,9.598 C4.921,10.550 5.138,11.162 5.239,11.432 C5.340,11.703 5.527,11.918 5.802,12.080 C6.165,12.297 6.580,12.406 7.049,12.406 C7.880,12.406 8.916,12.053 9.739,11.512 L9.739,14.103 C9.037,14.433 8.192,14.749 7.623,14.882 C7.055,15.015 6.439,15.082 5.777,15.082 Z" class="cls-1"/> </svg>