<svg xmlns="http://www.w3.org/2000/svg" viewBox="0 0 19.56 14.97"> <path d="M0.189,10.942 C0.189,10.942 2.827,11.874 3.924,11.874 C3.924,11.874 5.388,12.465 6.392,10.882 C6.392,10.882 6.731,10.389 6.272,10.150 C6.272,10.150 2.087,9.657 2.406,8.880 C2.406,8.880 2.386,8.441 2.964,8.541 C2.964,8.541 3.771,6.973 3.452,6.774 C3.452,6.774 2.954,6.335 3.352,6.295 C3.352,6.295 4.525,6.454 4.904,6.554 C4.904,6.554 5.163,6.460 4.924,6.281 C4.685,6.101 4.286,5.698 4.366,5.618 C4.366,5.618 4.505,5.279 5.143,5.558 C5.143,5.558 5.499,5.175 5.319,4.975 C5.319,4.975 4.781,4.656 5.040,4.397 C5.040,4.397 6.256,2.870 7.609,5.279 C7.609,5.279 7.948,5.737 7.988,5.299 C7.988,5.299 9.645,0.583 11.818,0.204 C11.818,0.204 12.515,0.344 12.655,0.124 C12.655,0.124 13.259,-0.114 13.458,0.085 C13.458,0.085 13.658,0.384 13.897,0.204 C13.897,0.204 14.754,-0.135 14.495,0.424 C14.495,0.424 13.674,1.329 13.375,1.350 C13.076,1.369 13.136,1.773 13.395,1.813 C13.395,1.813 16.981,2.071 16.981,4.743 C16.981,4.743 17.190,5.377 17.868,4.719 C17.868,4.719 18.894,4.067 19.153,4.035 C19.153,4.035 19.432,3.856 19.393,4.275 C19.393,4.275 18.655,5.552 17.898,5.910 C17.898,5.910 17.439,6.488 18.097,6.369 C18.097,6.369 18.737,6.237 19.036,6.057 C19.036,6.057 19.814,5.678 19.455,6.357 C19.455,6.357 17.818,7.419 17.459,7.419 C17.459,7.419 17.220,7.478 17.220,7.698 C17.220,7.698 17.001,14.974 7.870,14.974 C7.870,14.974 3.298,14.969 0.308,11.460 C0.308,11.460 -0.270,10.842 0.189,10.942 Z" class="cls-1"/> </svg>