<svg xmlns="http://www.w3.org/2000/svg" viewBox="0 0 15.94 15.03"> <path d="M3.219,0.487 C3.219,0.487 4.869,-0.488 5.431,0.525 C5.881,0.825 7.044,6.779 7.269,8.016 C7.494,9.254 8.094,9.704 8.469,9.179 C8.844,8.654 9.915,7.583 10.740,5.633 C11.565,3.683 10.727,3.783 10.390,3.896 C10.052,4.008 8.456,4.046 9.094,3.296 C9.731,2.546 11.056,0.796 11.469,0.646 C12.256,0.121 13.752,-0.517 14.727,0.608 C15.327,1.058 16.715,2.708 15.365,5.146 C14.015,7.583 8.394,14.475 8.394,14.475 C8.394,14.475 6.481,15.750 5.694,14.475 C4.906,13.200 2.440,5.775 2.365,4.950 C2.290,4.125 2.065,3.900 1.652,4.125 C1.240,4.350 0.498,5.504 0.423,5.129 C0.348,4.754 -0.319,4.470 0.131,3.720 C0.581,2.971 2.881,0.750 3.219,0.487 Z" class="cls-1"/> </svg>